# xmcd CD database file
#
# Track frame offsets:
#	150
#	12050
#	23182
#	34440
#	46325
#	58492
#	71195
#	85537
#	100287
#	110935
#	123027
#	136250
#	155090
#	170502
#	185297
#	201430
#	215362
#	231642
#	244772
#	261722
#
# Disc length: 3694 seconds
#
# Revision: 1
# Processed by: cddbd v1.5.2PL0 Copyright (c) Steve Scherf et al.
# Submitted via: CDex 1.51
#
DISCID=310e6c14
DTITLE=Various Artist - 75 greatest country songs - disc 1
DYEAR=1900
DGENRE=Country
TTITLE0=sixteen tons
TTITLE1=singing the blues
TTITLE2=send me the pillow you dream on
TTITLE3=ring of fire
TTITLE4=stand by your man
TTITLE5=rose gaden
TTITLE6=rhinestone cowboy
TTITLE7=one day at a time
TTITLE8=mr sandman
TTITLE9=you'll be back (every night in my dreams)
TTITLE10=i will always love you
TTITLE11=islands in the stream
TTITLE12=never be you
TTITLE13=who's gonna fill their shoes
TTITLE14=i'm no stranger to the rain
TTITLE15=a better man
TTITLE16=jukebox in my mind
TTITLE17=straight tequilla night
TTITLE18=don't let our love start slippin' away
TTITLE19=independance day
EXTD=
EXTT0=
EXTT1=
EXTT2=
EXTT3=
EXTT4=
EXTT5=
EXTT6=
EXTT7=
EXTT8=
EXTT9=
EXTT10=
EXTT11=
EXTT12=
EXTT13=
EXTT14=
EXTT15=
EXTT16=
EXTT17=
EXTT18=
EXTT19=
PLAYORDER=
